<svg width="736" height="165" viewBox="0 0 736 165" fill="none" xmlns="http://www.w3.org/2000/svg">
<path d="M32.2411 33V85.8L38.6893 92.4H51.5858L77.3787 66H128.964L161.206 99V132H135.413L128.964 138.6V165H0V132H128.964V99H32.2411L0 66V33H25.7929L32.2411 26.4V0H161.206V33H32.2411Z" fill="white"/>
<path d="M175.759 33V85.8L169.311 92.4H156.414L130.621 66H79.0355L46.7944 99V132H72.5873L79.0355 138.6V165H208V132H79.0355V99H175.759L208 66V33H182.207L175.759 26.4V0H46.7944V33H175.759Z" fill="white"/>
<path d="M29.0252 30.3475L48.9081 30.7494L29.4275 50.1948L29.0252 30.3475Z" fill="white"/>
<path d="M178.293 30.3475L158.411 30.7494L177.891 50.1948L178.293 30.3475Z" fill="white"/>
<path d="M291.23 49.54C286.94 49.54 283.3 50.71 283.3 57.21V64.36H298.12V75.28H283.3V133H268.09V75.28H256.91V64.36H268.09V55.65C268.09 41.87 276.54 37.32 288.76 37.32C292.92 37.32 297.47 37.84 299.68 38.23V50.06C297.6 49.8 293.96 49.54 291.23 49.54ZM322.917 64.36V74.76H323.437C326.947 68 333.968 62.8 343.847 62.8C345.798 62.8 348.007 63.06 349.567 63.45V77.88C347.747 77.62 345.278 77.36 342.548 77.36C331.757 77.36 323.567 82.43 323.567 97.25V133.13H308.357V64.36H322.917ZM390.294 62.8C410.964 62.8 424.224 76.97 424.224 98.68C424.224 120.52 410.964 134.69 390.294 134.69C369.494 134.69 356.234 120.52 356.234 98.68C356.234 76.97 369.494 62.8 390.294 62.8ZM390.294 122.73C401.604 122.73 408.754 113.89 408.754 98.68C408.754 83.47 401.604 74.76 390.294 74.76C378.854 74.76 371.704 83.47 371.704 98.68C371.704 113.89 378.854 122.73 390.294 122.73ZM513.569 62.8C525.399 62.8 536.579 70.21 536.579 87.63V133H521.369V91.92C521.369 79.7 516.559 75.28 508.239 75.28C500.699 75.28 493.549 82.17 493.549 95.43V133H478.339V91.92C478.339 79.7 473.529 75.28 465.209 75.28C457.539 75.28 450.389 82.17 450.389 95.43V133H435.179V64.36H449.739V73.46H450.259C455.329 66.18 462.349 62.8 470.539 62.8C478.599 62.8 486.399 66.18 490.429 73.98C496.539 66.96 503.169 62.8 513.569 62.8ZM563.676 64.36V74.76H564.196C567.706 68 574.726 62.8 584.606 62.8C586.556 62.8 588.766 63.06 590.326 63.45V77.88C588.506 77.62 586.036 77.36 583.306 77.36C572.516 77.36 564.326 82.43 564.326 97.25V133.13H549.116V64.36H563.676ZM614.407 73.33H614.927C620.257 66.05 627.537 62.8 636.117 62.8C648.337 62.8 660.037 70.21 660.037 87.63V133H644.827V91.92C644.827 79.7 639.757 75.28 630.527 75.28C622.597 75.28 614.407 83.34 614.407 96.6V133H599.197V38.88H614.407V73.33ZM732.573 133L717.753 133.13C716.583 131.83 715.673 128.45 715.673 123.77C711.253 131.31 701.373 134.69 692.793 134.69C680.443 134.69 669.913 126.89 669.913 114.15C669.913 99.33 680.573 93.87 698.903 91.92C712.163 90.49 715.543 88.28 715.543 84.12C715.543 78.4 711.643 74.5 702.153 74.5C695.393 74.5 688.893 78.01 686.553 85.55L672.513 82.82C675.503 70.34 687.203 62.8 702.543 62.8C722.953 62.8 730.753 72.16 730.753 84.25V118.7C730.753 126.24 730.883 130.01 732.573 133ZM715.543 106.09V98.29C713.333 100.5 706.053 101.54 698.773 102.45C691.883 103.49 685.513 106.74 685.513 113.89C685.513 120 689.673 123.25 696.433 123.25C704.753 123.25 715.543 118.44 715.543 106.09Z" fill="white"/>
</svg>
