<svg width="256" height="203" viewBox="0 0 256 203" fill="none" xmlns="http://www.w3.org/2000/svg">
<path d="M39.6814 40.6V105.56L47.6177 113.68H63.4902L95.2353 81.2H158.726L198.407 121.8V162.4H166.662L158.726 170.52V203H0V162.4H158.726V121.8H39.6814L0 81.2V40.6H31.7451L39.6814 32.48V0H198.407V40.6H39.6814Z" fill="white"/>
<path d="M216.319 40.6V105.56L208.382 113.68H192.51L160.765 81.2H97.2745L57.5931 121.8V162.4H89.3382L97.2745 170.52V203H256V162.4H97.2745V121.8H216.319L256 81.2V40.6H224.255L216.319 32.48V0H57.5931V40.6H216.319Z" fill="white"/>
<path d="M35.7233 37.3366L60.1945 37.8311L36.2185 61.7548L35.7233 37.3366Z" fill="white"/>
<path d="M219.438 37.3366L194.967 37.8311L218.943 61.7548L219.438 37.3366Z" fill="white"/>
</svg>
