<svg width="948" height="165" viewBox="0 0 948 165" fill="none" xmlns="http://www.w3.org/2000/svg">
<path d="M32.2411 33V85.8L38.6893 92.4H51.5858L77.3787 66H128.964L161.206 99V132H135.413L128.964 138.6V165H0V132H128.964V99H32.2411L0 66V33H25.7929L32.2411 26.4V0H161.206V33H32.2411Z" fill="white"/>
<path d="M175.759 33V85.8L169.311 92.4H156.414L130.621 66H79.0355L46.7944 99V132H72.5873L79.0355 138.6V165H208V132H79.0355V99H175.759L208 66V33H182.207L175.759 26.4V0H46.7944V33H175.759Z" fill="white"/>
<path d="M29.0252 30.3475L48.9081 30.7494L29.4275 50.1948L29.0252 30.3475Z" fill="white"/>
<path d="M178.293 30.3475L158.411 30.7494L177.891 50.1948L178.293 30.3475Z" fill="white"/>
<path d="M332.44 66.05L316.19 67.22C313.98 56.43 306.05 50.97 294.74 50.97C283.69 50.97 276.8 56.56 276.8 64.36C276.8 71.77 282.91 74.11 290.84 76.06L306.44 79.7C320.74 83.21 334.78 86.85 334.78 107.65C334.78 126.11 318.14 135.21 297.86 135.21C275.24 135.21 260.16 124.42 257.17 104.4L273.29 102.84C275.11 117.4 285.9 122.34 298.12 122.34C309.95 122.34 318.14 117.01 318.14 108.04C318.14 98.94 311.25 96.73 301.63 94.39L285.38 90.36C273.03 87.24 260.29 82.56 260.29 64.88C260.29 48.24 275.37 38.1 295 38.1C315.67 38.1 328.15 48.24 332.44 66.05ZM361.273 73.33H361.793C367.123 66.05 374.403 62.8 382.983 62.8C395.203 62.8 406.903 70.21 406.903 87.63V133H391.693V91.92C391.693 79.7 386.623 75.28 377.393 75.28C369.463 75.28 361.273 83.34 361.273 96.6V133H346.063V38.88H361.273V73.33ZM419.509 38.88H434.719V53.83H419.509V38.88ZM419.509 64.36H434.719V133H419.509V64.36ZM462.434 73.33L462.954 73.46C468.024 66.05 475.564 62.8 484.404 62.8C497.014 62.8 508.714 70.21 508.714 87.63V133H493.504V91.92C493.504 79.7 488.434 75.28 479.204 75.28C471.014 75.28 463.084 82.17 463.084 95.43V133H447.874V64.36H462.434V73.33ZM535.62 64.36V74.76H536.14C539.65 68 546.67 62.8 556.55 62.8C558.5 62.8 560.71 63.06 562.27 63.45V77.88C560.45 77.62 557.98 77.36 555.25 77.36C544.46 77.36 536.27 82.43 536.27 97.25V133.13H521.06V64.36H535.62ZM571.4 38.88H586.61V53.83H571.4V38.88ZM571.4 64.36H586.61V133H571.4V64.36ZM614.326 73.33L614.846 73.46C619.916 66.05 627.456 62.8 636.296 62.8C648.906 62.8 660.606 70.21 660.606 87.63V133H645.396V91.92C645.396 79.7 640.326 75.28 631.096 75.28C622.906 75.28 614.976 82.17 614.976 95.43V133H599.766V64.36H614.326V73.33ZM733.723 64.36L708.113 133C699.923 155.49 692.123 158.61 681.203 158.61C677.173 158.61 674.183 158.35 672.103 158.09V145.09C673.403 145.35 675.093 145.61 678.993 145.61C685.883 145.61 688.353 142.75 691.733 134.56L692.643 132.22L665.083 64.36H681.593L699.923 114.41H700.443L717.473 64.36H733.723ZM750.115 51.88V41.09H789.115V51.88H750.115ZM769.615 62.8C790.285 62.8 803.545 76.97 803.545 98.68C803.545 120.52 790.285 134.69 769.615 134.69C748.815 134.69 735.555 120.52 735.555 98.68C735.555 76.97 748.815 62.8 769.615 62.8ZM769.615 122.73C780.925 122.73 788.075 113.89 788.075 98.68C788.075 83.47 780.925 74.76 769.615 74.76C758.175 74.76 751.025 83.47 751.025 98.68C751.025 113.89 758.175 122.73 769.615 122.73ZM829.709 108.69V133H814.499V38.88H829.709V91.66L856.359 64.36H874.819L848.429 90.62L877.809 133H859.869L837.899 100.76L829.709 108.69ZM928.76 124.03H928.24C923.17 131.31 915.63 134.69 906.79 134.69C894.18 134.69 882.48 127.28 882.48 109.73V64.36H897.69V105.57C897.69 117.79 902.76 122.08 911.99 122.08C920.18 122.08 928.11 115.32 928.11 101.93V64.36H943.32V133H928.76V124.03Z" fill="white"/>
</svg>
